<svg width="74" height="52" viewBox="0 0 74 52" fill="none" xmlns="http://www.w3.org/2000/svg">
<path opacity="0.8" d="M29.3652 35.5744L49.3399 25.2569L29.3652 14.8155V35.5744ZM37.0002 -0.000488281C41.6224 -0.000488281 46.0865 0.061417 50.3923 0.185227C54.6982 0.309038 57.8554 0.439727 59.8638 0.577294L62.8766 0.742375C62.9041 0.742375 63.1379 0.76301 63.5781 0.80428C64.0184 0.84555 64.3348 0.88682 64.5274 0.928091C64.72 0.969361 65.0432 1.03127 65.4972 1.11381C65.9512 1.19635 66.3432 1.3064 66.6734 1.44397C67.0036 1.58153 67.3888 1.76037 67.829 1.98048C68.2692 2.20059 68.6956 2.46884 69.1084 2.78525C69.521 3.10165 69.92 3.46621 70.3052 3.87891C70.4703 4.04399 70.6835 4.29849 70.9449 4.64241C71.2063 4.98632 71.6052 5.79109 72.1417 7.05671C72.6782 8.32233 73.0428 9.71176 73.2354 11.225C73.4555 12.9859 73.6274 14.8637 73.7512 16.8584C73.8751 18.8531 73.9507 20.4145 73.9782 21.5425V28.8061C74.0057 32.7955 73.7581 36.785 73.2354 40.7744C73.0428 42.2877 72.6989 43.6565 72.2036 44.8808C71.7084 46.1052 71.2682 46.9512 70.883 47.4189L70.3052 48.1205C69.92 48.5332 69.521 48.8978 69.1084 49.2142C68.6956 49.5306 68.2692 49.792 67.829 49.9983C67.3888 50.2047 67.0036 50.3766 66.6734 50.5142C66.3432 50.6518 65.9512 50.7618 65.4972 50.8444C65.0432 50.9269 64.7131 50.9888 64.5067 51.0301C64.3004 51.0713 63.984 51.1126 63.5575 51.1539C63.1311 51.1952 62.9041 51.2158 62.8766 51.2158C55.9707 51.7385 47.3452 51.9999 37.0002 51.9999C31.3049 51.9449 26.3593 51.8555 22.1635 51.7317C17.9677 51.6079 15.2095 51.5047 13.8889 51.4221L11.8666 51.2571L10.3809 51.092C9.39041 50.9544 8.64067 50.8168 8.13167 50.6793C7.62267 50.5417 6.92108 50.2528 6.02689 49.8126C5.13271 49.3724 4.35545 48.8084 3.69513 48.1205C3.53005 47.9554 3.31682 47.701 3.05544 47.357C2.79406 47.0131 2.39512 46.2083 1.85861 44.9427C1.32209 43.6771 0.95754 42.2877 0.764946 40.7744C0.544838 39.0136 0.37288 37.1358 0.249069 35.1411C0.125258 33.1463 0.0495965 31.5849 0.022083 30.4569V23.1933C-0.00543041 19.2039 0.242191 15.2144 0.764946 11.225C0.95754 9.71176 1.30146 8.34296 1.7967 7.11862C2.29194 5.89427 2.73216 5.04823 3.11735 4.5805L3.69513 3.87891C4.08032 3.46621 4.47926 3.10165 4.89196 2.78525C5.30467 2.46884 5.73112 2.20059 6.17134 1.98048C6.61155 1.76037 6.99674 1.58153 7.3269 1.44397C7.65706 1.3064 8.04913 1.19635 8.5031 1.11381C8.95708 1.03127 9.28036 0.969361 9.47295 0.928091C9.66555 0.88682 9.98195 0.84555 10.4222 0.80428C10.8624 0.76301 11.0962 0.742375 11.1238 0.742375C18.0296 0.247133 26.6551 -0.000488281 37.0002 -0.000488281Z" fill="black" fill-opacity="0.8"/>
</svg>
